<?xml version="1.0" encoding="UTF-8" standalone="no"?>
<!-- Created with Inkscape (http://www.inkscape.org/) -->

<svg
   width="66.356499mm"
   height="50mm"
   viewBox="0 0 66.356499 50"
   version="1.1"
   id="svg5110"
   inkscape:version="1.2.1 (9c6d41e410, 2022-07-14)"
   sodipodi:docname="intensific_1.svg"
   inkscape:export-filename="intensific_1.png"
   inkscape:export-xdpi="90"
   inkscape:export-ydpi="90"
   xmlns:inkscape="http://www.inkscape.org/namespaces/inkscape"
   xmlns:sodipodi="http://sodipodi.sourceforge.net/DTD/sodipodi-0.dtd"
   xmlns="http://www.w3.org/2000/svg"
   xmlns:svg="http://www.w3.org/2000/svg">
  <sodipodi:namedview
     id="namedview5112"
     pagecolor="#ffffff"
     bordercolor="#666666"
     borderopacity="1.0"
     inkscape:showpageshadow="2"
     inkscape:pageopacity="0.0"
     inkscape:pagecheckerboard="0"
     inkscape:deskcolor="#d1d1d1"
     inkscape:document-units="mm"
     showgrid="false"
     inkscape:zoom="1.3883617"
     inkscape:cx="189.07177"
     inkscape:cy="152.69796"
     inkscape:window-width="1366"
     inkscape:window-height="705"
     inkscape:window-x="-8"
     inkscape:window-y="-8"
     inkscape:window-maximized="1"
     inkscape:current-layer="layer1" />
  <defs
     id="defs5107" />
  <g
     inkscape:label="Capa 1"
     inkscape:groupmode="layer"
     id="layer1"
     transform="translate(15.929613,-29.980039)">
    <path
       style="fill:none;stroke:#000000;stroke-width:0.264583px;stroke-linecap:butt;stroke-linejoin:miter;stroke-opacity:1"
       d="m -15.649842,46.80204 -0.146524,20.36089 h 35.4588 L 19.369386,47.095 C 0.907366,34.49761 -15.649842,46.80204 -15.649842,46.80204 Z"
       id="path1270-91"
       sodipodi:nodetypes="ccccc" />
    <path
       style="fill:none;stroke:#000000;stroke-width:0.264583px;stroke-linecap:butt;stroke-linejoin:miter;stroke-opacity:1"
       d="M 27.428204,66.72348 30.505209,39.18501"
       id="path1518-7" />
    <path
       style="fill:none;stroke:#000000;stroke-width:0.264583px;stroke-linecap:butt;stroke-linejoin:miter;stroke-opacity:1"
       d="M 37.465099,66.65024 34.388094,39.11177"
       id="path1518-9-0" />
    <path
       style="fill:none;stroke:#000000;stroke-width:0.264582px;stroke-linecap:butt;stroke-linejoin:miter;stroke-opacity:1"
       d="m 29.135475,32.10784 1.924591,-1.32261"
       id="path2214-2" />
    <path
       style="fill:none;stroke:#000000;stroke-width:0.264582px;stroke-linecap:butt;stroke-linejoin:miter;stroke-opacity:1"
       d="M 35.94112,32.08464 34.016524,30.76203"
       id="path2214-4-8" />
    <path
       style="fill:none;stroke:#000000;stroke-width:0.264582px;stroke-linecap:butt;stroke-linejoin:miter;stroke-opacity:1"
       d="m 29.181849,32.08464 v 6.9147 h 6.72449 v -6.9147"
       id="path2351-1" />
    <path
       style="fill:none;stroke:#000000;stroke-width:0.264582px;stroke-linecap:butt;stroke-linejoin:miter;stroke-opacity:1"
       d="m 31.083253,30.78523 h 2.89849 v -0.6729 h -2.921677 z"
       id="path2353-4" />
    <path
       style="fill:none;stroke:#000000;stroke-width:0.264583px;stroke-linecap:butt;stroke-linejoin:miter;stroke-opacity:1"
       d="m 27.428204,66.72348 h 10.03689"
       id="path2665-9" />
    <path
       style="fill:none;stroke:#000000;stroke-width:0.264583px;stroke-linecap:butt;stroke-linejoin:miter;stroke-opacity:1"
       d="m 30.505209,39.03853 4.102671,2.41694 -4.981817,4.54092 6.007484,4.76064 -6.95989,4.98036 8.058817,5.34656 -9.30427,5.63953"
       id="path2863-9" />
    <path
       style="fill:none;stroke:#000000;stroke-width:0.264583px;stroke-linecap:butt;stroke-linejoin:miter;stroke-opacity:1"
       d="m 37.333424,66.79672 c 0.03741,0 0.07674,0.0309 0.112224,0 0.03764,-0.0327 0.04567,-0.1946 0.08417,-0.21971 0.05014,-0.0327 0.118853,0.043 0.168336,0 0.1598,-0.13907 0.292549,0.005 0.448897,0.0732 0.09008,0.0392 0.220637,-0.0766 0.308618,0 0.03199,0.0278 0.05218,0.11864 0.08417,0.14647 0.06826,0.0594 0.210647,0 0.280561,0 0.18253,0 0.276112,0.48296 0.589178,0.36621 0.113953,-0.0425 0.224175,-0.2379 0.336674,-0.29296 0.144646,-0.0708 0.398414,0.0272 0.533066,-0.0732 0.04021,-0.03 0.07339,-0.10593 0.112224,-0.14647 0.03473,-0.0363 0.07532,0.016 0.112224,0 0.233083,-0.10141 0.59381,-0.21368 0.813627,0.0732 0.03346,0.0437 0.07554,-0.0191 0.112224,0 0.348738,0.18209 0.786176,0.14596 1.122243,-0.14647 0.01947,-0.0169 0.508777,0 0.420843,0"
       id="path5564-9" />
    <path
       style="fill:none;stroke:#000000;stroke-width:0.264583px;stroke-linecap:butt;stroke-linejoin:miter;stroke-opacity:1"
       d="m 19.735695,67.0897 c 0.726085,0.12808 1.588635,0.35463 2.344384,0.21971 0.334845,-0.0598 0.629722,-0.25867 0.952407,-0.3662 0.42242,-0.14076 1.810149,0.15717 2.124598,0 0.04882,-0.0244 0.03464,-0.10788 0.07326,-0.14649 0.09989,-0.0999 1.734152,-0.0732 2.124598,-0.0732"
       id="path5566-6" />
    <ellipse
       style="fill:none;fill-opacity:1;stroke:#666666;stroke-width:0.5;stroke-linecap:round;stroke-linejoin:round;stroke-miterlimit:4;stroke-dasharray:none;stroke-dashoffset:0;stroke-opacity:1"
       id="path8054-9"
       cx="38.473133"
       cy="77.563103"
       rx="1.5385016"
       ry="1.5380532" />
    <text
       xml:space="preserve"
       style="font-size:4.23333px;line-height:1.25;font-family:Carlito;-inkscape-font-specification:Carlito;letter-spacing:0px;stroke-width:0.264583"
       x="31.952608"
       y="78.611328"
       id="text9092-8"
       transform="scale(1.0001458,0.99985423)"><tspan
         sodipodi:role="line"
         id="tspan9090-3"
         style="font-size:4.23333px;stroke-width:0.264583"
         x="31.952608"
         y="78.611328">B1</tspan></text>
    <path
       style="fill:none;stroke:#000080;stroke-width:0.5;stroke-linecap:butt;stroke-linejoin:miter;stroke-miterlimit:4;stroke-dasharray:none;stroke-opacity:1"
       d="M 38.490761,79.98004 V 79.17439"
       id="path9910-1"
       sodipodi:nodetypes="cc" />
    <path
       style="fill:none;stroke:#000080;stroke-width:0.5;stroke-linecap:butt;stroke-linejoin:miter;stroke-miterlimit:4;stroke-dasharray:none;stroke-opacity:1"
       d="M 38.423433,75.95181 V 32.44687 h -3.252371 v 0.65917"
       id="path10566-9"
       sodipodi:nodetypes="cccc" />
    <path
       style="fill:none;stroke:#00ccff;stroke-width:0.264583px;stroke-linecap:butt;stroke-linejoin:miter;stroke-opacity:1"
       d="m 29.18649,33.69196 h 6.666843"
       id="path10634-3" />
    <path
       style="fill:#00ccff;fill-opacity:1;stroke:none;stroke-width:0.500002;stroke-linecap:round;stroke-linejoin:round;stroke-miterlimit:4;stroke-dasharray:none;stroke-dashoffset:0;stroke-opacity:1"
       d="m 29.259754,36.36525 v -2.56343 h 3.260158 3.260157 v 2.56343 2.56341 h -3.260157 -3.260158 z"
       id="path10936-8" />
    <path
       style="fill:none;fill-opacity:1;stroke:#000080;stroke-width:0.5;stroke-linecap:butt;stroke-linejoin:miter;stroke-miterlimit:4;stroke-dasharray:none;stroke-opacity:1"
       d="m 32.263495,38.89205 v 27.392 H 18.78329 V 49.07249"
       id="path12089-5"
       sodipodi:nodetypes="cccc" />
    <path
       style="fill:#ff0000;stroke:#ff8080;stroke-width:0.264582px;stroke-linecap:butt;stroke-linejoin:miter;stroke-opacity:1"
       d="M 41.601115,38.98472 V 66.63173"
       id="path12495-2-5" />
    <path
       style="fill:none;stroke:#ff8080;stroke-width:0.264583px;stroke-linecap:butt;stroke-linejoin:miter;stroke-opacity:1"
       d="M 42.362972,38.82625 H 35.993166"
       id="path13046-9" />
    <text
       xml:space="preserve"
       style="font-size:4.23333px;line-height:1.25;font-family:Carlito;-inkscape-font-specification:Carlito;letter-spacing:0px;fill:#ff5555;stroke:#ff5555;stroke-width:0.264583"
       x="41.928093"
       y="53.547993"
       id="text18146-9"
       transform="scale(1.0001458,0.99985423)"><tspan
         sodipodi:role="line"
         id="tspan18144-4"
         style="font-size:4.23333px;fill:#ff5555;stroke:#ff5555;stroke-width:0.264583"
         x="41.928093"
         y="53.547993">13 m</tspan></text>
    <path
       style="fill:#ff0000;stroke:#ff8080;stroke-width:0.264583px;stroke-linecap:butt;stroke-linejoin:miter;stroke-opacity:1"
       d="M -11.878176,54.06247 V 66.98394"
       id="path12495-2-5-1" />
    <text
       xml:space="preserve"
       style="font-size:4.23333px;line-height:1.25;font-family:Carlito;-inkscape-font-specification:Carlito;letter-spacing:0px;fill:#ff5555;stroke:#ff5555;stroke-width:0.264583"
       x="-11.287652"
       y="61.721085"
       id="text18146-9-5"
       transform="scale(1.0001458,0.99985423)"><tspan
         sodipodi:role="line"
         id="tspan18144-4-4"
         style="font-size:4.23333px;fill:#ff5555;stroke:#ff5555;stroke-width:0.264583"
         x="-11.287652"
         y="61.721085">6 m</tspan></text>
    <path
       style="fill:#ff0000;stroke:#ff8080;stroke-width:0.265;stroke-linecap:butt;stroke-linejoin:miter;stroke-dasharray:none;stroke-opacity:1"
       d="m 15.637016,62.98444 v 3.81111"
       id="path12495-2-5-8" />
    <text
       xml:space="preserve"
       style="font-size:4.23333px;line-height:1.25;font-family:Carlito;-inkscape-font-specification:Carlito;letter-spacing:0px;fill:#ff5555;stroke:#ff5555;stroke-width:0.264583"
       x="5.1181059"
       y="65.887344"
       id="text18146-9-4"
       transform="scale(1.0001458,0.99985423)"><tspan
         sodipodi:role="line"
         id="tspan18144-4-8"
         style="font-size:4.23333px;fill:#ff5555;stroke:#ff5555;stroke-width:0.264583"
         x="5.1181059"
         y="65.887344">1,2 m</tspan></text>
    <path
       style="fill:none;stroke:#000080;stroke-width:0.5;stroke-linecap:butt;stroke-linejoin:miter;stroke-dasharray:none;stroke-opacity:1"
       d="m 18.702972,49.25057 h -33.617495 v 4.67719 h 1.388549"
       id="path2749" />
    <path
       style="fill:none;stroke:#000080;stroke-width:0.5;stroke-linecap:butt;stroke-linejoin:miter;stroke-dasharray:none;stroke-opacity:1"
       d="m 18.776052,63.06295 c -1.680874,0 -1.680874,0 -1.680874,0"
       id="path4283" />
    <text
       xml:space="preserve"
       style="font-size:3.88056px;line-height:1.25;font-family:sans-serif;stroke-width:0.264583"
       x="-13.071028"
       y="52.848721"
       id="text5837"><tspan
         sodipodi:role="line"
         id="tspan5835"
         style="stroke-width:0.264583"
         x="-13.071028"
         y="52.848721">A</tspan></text>
    <text
       xml:space="preserve"
       style="font-size:3.88056px;line-height:1.25;font-family:sans-serif;stroke-width:0.264583"
       x="15.324249"
       y="61.996189"
       id="text5841"><tspan
         sodipodi:role="line"
         id="tspan5839"
         style="stroke-width:0.264583"
         x="15.324249"
         y="61.996189">B</tspan></text>
  </g>
</svg>
