<?xml version="1.0" encoding="UTF-8" standalone="no"?>
<!-- Created with Inkscape (http://www.inkscape.org/) -->

<svg
   width="114.82693mm"
   height="112.74332mm"
   viewBox="0 0 114.82693 112.74332"
   version="1.1"
   id="svg13309"
   inkscape:version="1.2.2 (732a01da63, 2022-12-09)"
   sodipodi:docname="tp_top_23.svg"
   xmlns:inkscape="http://www.inkscape.org/namespaces/inkscape"
   xmlns:sodipodi="http://sodipodi.sourceforge.net/DTD/sodipodi-0.dtd"
   xmlns="http://www.w3.org/2000/svg"
   xmlns:svg="http://www.w3.org/2000/svg">
  <sodipodi:namedview
     id="namedview13311"
     pagecolor="#ffffff"
     bordercolor="#666666"
     borderopacity="1.0"
     inkscape:showpageshadow="2"
     inkscape:pageopacity="0.0"
     inkscape:pagecheckerboard="0"
     inkscape:deskcolor="#d1d1d1"
     inkscape:document-units="mm"
     showgrid="false"
     inkscape:zoom="0.70710678"
     inkscape:cx="538.10826"
     inkscape:cy="265.87215"
     inkscape:window-width="1366"
     inkscape:window-height="705"
     inkscape:window-x="-8"
     inkscape:window-y="-8"
     inkscape:window-maximized="1"
     inkscape:current-layer="layer1" />
  <defs
     id="defs13306" />
  <g
     inkscape:label="Capa 1"
     inkscape:groupmode="layer"
     id="layer1"
     transform="translate(-17.321922,-87.652466)">
    <g
       id="g14010"
       transform="matrix(1.5845152,0,0,1.583913,-10.927067,50.613721)"
       style="stroke-width:0.631228">
      <ellipse
         style="fill:none;fill-opacity:0.466667;stroke:#000000;stroke-width:0.157807;stroke-linecap:round;stroke-linejoin:round;stroke-miterlimit:0;stroke-dasharray:none;stroke-opacity:1"
         id="path13542"
         cx="28.992857"
         cy="32.387142"
         rx="4.3842854"
         ry="1.8385713" />
      <path
         style="fill:none;stroke:#000000;stroke-width:0.157807;stroke-linecap:butt;stroke-linejoin:miter;stroke-dasharray:none;stroke-opacity:1"
         d="m 33.426706,37.851926 c -0.0448,0.440524 -0.1907,0.872159 -0.825042,1.18756 -0.524716,0.273472 -1.15601,0.534314 -2.012603,0.675035 -0.788686,0.1791 -1.765682,0.17504 -2.887649,0.08751 -0.741417,-0.17568 -1.503831,-0.302366 -2.150109,-0.700037 C 24.978667,38.846139 24.53261,38.35042 24.50125,37.81443 v -5.462779"
         id="path13544"
         sodipodi:nodetypes="cccccc" />
      <path
         style="fill:none;stroke:#000000;stroke-width:0.167012px;stroke-linecap:butt;stroke-linejoin:miter;stroke-opacity:1"
         d="M 33.401703,37.851931 V 32.401652"
         id="path14005" />
    </g>
    <path
       style="fill:none;stroke:#0000ff;stroke-width:0.264583px;stroke-linecap:butt;stroke-linejoin:miter;stroke-opacity:1"
       d="m 34.084286,113.70857 v 18.24429 h 73.118574 l -31.326433,31.32642 v 27.225"
       id="path14078" />
    <path
       style="fill:none;stroke:#0000ff;stroke-width:0.264583px;stroke-linecap:butt;stroke-linejoin:miter;stroke-opacity:1"
       d="m 55.702841,132.10673 -2.97515,2.97515"
       id="path14080" />
    <path
       style="fill:none;stroke:#0000ff;stroke-width:0.264583px;stroke-linecap:butt;stroke-linejoin:miter;stroke-opacity:1"
       d="m 80.841624,132.11924 -2.97515,2.97515"
       id="path14080-5" />
    <path
       style="fill:none;stroke:#0000ff;stroke-width:0.264583px;stroke-linecap:butt;stroke-linejoin:miter;stroke-opacity:1"
       d="m 93.604775,145.40742 v 12.20062 H 89.20455"
       id="path14104" />
    <path
       style="fill:none;stroke:#0000ff;stroke-width:0.264583px;stroke-linecap:butt;stroke-linejoin:miter;stroke-opacity:1"
       d="m 75.803868,190.40971 h -3.70019"
       id="path14106" />
    <ellipse
       style="fill:#ff0000;fill-opacity:1;stroke:#ff0000;stroke-width:0.25;stroke-linecap:round;stroke-linejoin:round;stroke-miterlimit:0;stroke-dasharray:none;stroke-opacity:1"
       id="path14160"
       cx="33.926571"
       cy="115.44235"
       rx="1.4560817"
       ry="1.375" />
    <ellipse
       style="fill:#ff0000;fill-opacity:1;stroke:#ff0000;stroke-width:0.25;stroke-linecap:round;stroke-linejoin:round;stroke-miterlimit:0;stroke-dasharray:none;stroke-opacity:1"
       id="path14160-7"
       cx="72.095764"
       cy="190.03525"
       rx="1.4560817"
       ry="1.375" />
    <path
       style="fill:none;stroke:#666666;stroke-width:0.264584px;stroke-linecap:butt;stroke-linejoin:miter;stroke-opacity:1"
       d="m 118.04,132.14369 c 2.23595,0.15345 3.2144,0.9027 0.62999,3.34036 -5.24654,4.64793 -8.35471,8.3942 -10.9444,11.92184 -0.0851,0.81101 -0.63888,1.71954 0.85327,2.20241 -1.99086,0.39527 -3.37687,1.06131 -4.5488,1.82316 -5.00665,4.44654 -8.715562,8.48856 -11.421518,12.21799 -2.332609,2.96509 -4.029246,2.68805 -5.787457,2.72504"
       id="path15903-6"
       sodipodi:nodetypes="ccccccc" />
    <path
       style="fill:none;stroke:#666666;stroke-width:0.264583px;stroke-linecap:butt;stroke-linejoin:miter;stroke-opacity:1"
       d="m 106.14991,127.81771 c 0.007,-2.24423 -1.30233,-3.8176 -6.340111,-3.49036 -9.64868,0.925 -17.274303,0.61255 -24.409361,0 -1.571429,-0.62268 -3.393767,-0.88726 -4.121076,-2.71471 -1.02915,1.53716 -2.49739,2.26854 -4.121075,2.71471 -9.228907,0.87309 -17.504506,0.8715 -25.043375,0.19382 -6.018306,-0.36769 -5.714533,1.47444 -6.023085,3.10254"
       id="path15903-4"
       sodipodi:nodetypes="ccccccc" />
    <path
       style="fill:none;stroke:#666666;stroke-width:0.264583px;stroke-linecap:butt;stroke-linejoin:miter;stroke-opacity:1"
       d="m 28.598184,113.61359 c -0.757173,-0.002 -1.288004,0.34591 -1.177597,1.68399 0.312084,2.56279 0.206662,4.58823 0,6.48337 -0.210083,0.41739 -0.299351,0.90142 -0.915909,1.0946 0.51862,0.27335 0.76538,0.66333 0.915909,1.0946 0.294571,2.45129 0.294027,4.64937 0.06542,6.65177 -0.12405,1.59852 0.497459,1.51783 1.046753,1.59979"
       id="path15903-5"
       sodipodi:nodetypes="ccccccc" />
    <text
       xml:space="preserve"
       style="font-size:3.88056px;line-height:1.25;font-family:sans-serif;stroke-width:0.264583"
       x="22.357096"
       y="123.97559"
       id="text15929"><tspan
         sodipodi:role="line"
         id="tspan15927"
         style="stroke-width:0.264583"
         x="22.357096"
         y="123.97559">4</tspan></text>
    <path
       style="fill:none;stroke:#666666;stroke-width:0.264582px;stroke-linecap:butt;stroke-linejoin:miter;stroke-opacity:1"
       d="m 68.778315,163.99107 c -1.235908,-0.003 -2.102366,0.49376 -1.922153,2.40376 0.509405,3.65818 0.337328,6.54933 0,9.25449 -0.342911,0.59579 -0.488621,1.28671 -1.495008,1.56245 0.846526,0.39019 1.249305,0.94686 1.495008,1.56246 0.480819,3.49902 0.479931,6.6366 0.106783,9.49487 -0.202483,2.28176 0.811986,2.16658 1.708581,2.28357"
       id="path15903-5-5"
       sodipodi:nodetypes="ccccccc" />
    <text
       xml:space="preserve"
       style="font-size:3.88056px;line-height:1.25;font-family:sans-serif;stroke-width:0.264583"
       x="60.603115"
       y="177.80034"
       id="text15929-2"><tspan
         sodipodi:role="line"
         id="tspan15927-3"
         style="stroke-width:0.264583"
         x="60.603115"
         y="177.80034">6</tspan></text>
    <text
       xml:space="preserve"
       style="font-size:3.88056px;line-height:1.25;font-family:sans-serif;stroke-width:0.264583"
       x="59.002083"
       y="118.53333"
       id="text15955"><tspan
         sodipodi:role="line"
         id="tspan15953"
         style="stroke-width:0.264583"
         x="59.002083"
         y="118.53333">12 * log(100 * N) </tspan></text>
    <text
       xml:space="preserve"
       style="font-size:3.88056px;line-height:1.25;font-family:sans-serif;stroke-width:0.264583"
       x="111.08636"
       y="152.08603"
       id="text15955-9"><tspan
         sodipodi:role="line"
         id="tspan15953-1"
         style="stroke-width:0.264583"
         x="111.08636"
         y="152.08603">10 * N</tspan></text>
  </g>
</svg>
